<svg
  width="18"
  height="19"
  viewBox="0 0 18 19"
  fill="current"
  xmlns="http://www.w3.org/2000/svg"
>
  <path
    d="M15.75.558H2.25c-.956 0-1.744.788-1.744 1.744v5.231c0 .957.788 1.744 1.744 1.744h13.5c.956 0 1.744-.787 1.744-1.744v-5.23c0-.957-.788-1.745-1.744-1.745m.506 6.975a.504.504 0 0 1-.506.507H2.25a.504.504 0 0 1-.506-.507v-5.23c0-.282.225-.507.506-.507h13.5c.281 0 .506.225.506.506zM6.131 10.965h-3.88c-.957 0-1.745.787-1.745 1.743v3.094c0 .956.788 1.744 1.744 1.744h3.881c.957 0 1.744-.788 1.744-1.744v-3.094c.028-.956-.76-1.743-1.744-1.743m.507 4.837a.504.504 0 0 1-.507.506h-3.88a.504.504 0 0 1-.507-.506v-3.094c0-.28.225-.506.506-.506h3.881c.282 0 .507.225.507.506zm9.112-4.837h-3.881c-.957 0-1.744.787-1.744 1.743v3.094c0 .956.787 1.744 1.744 1.744h3.881c.956 0 1.744-.788 1.744-1.744v-3.094c0-.956-.788-1.743-1.744-1.743m.506 4.837a.504.504 0 0 1-.506.506h-3.881a.504.504 0 0 1-.506-.506v-3.094c0-.28.225-.506.506-.506h3.881c.281 0 .506.225.506.506z"
  />
</svg>
