<svg
  width="18"
  height="19"
  viewBox="0 0 18 19"
  fill="current"
  xmlns="http://www.w3.org/2000/svg"
>
  <path d="M10.856.558a.654.654 0 0 0-.646.647V6.83c0 .338.28.647.646.647h6.02a.66.66 0 0 0 .45-.197.76.76 0 0 0 .168-.478c-.225-3.516-3.15-6.244-6.638-6.244m.62 5.597V1.852a5.41 5.41 0 0 1 4.668 4.331h-4.669z" />
  <path d="M15.385 8.743H9.112V2.696a.624.624 0 0 0-.62-.619H8.24C3.966 2.05.506 5.537.506 9.811c0 4.275 3.488 7.763 7.763 7.763s7.762-3.488 7.762-7.763c0-.168 0-.337-.028-.478 0-.337-.281-.59-.619-.59m-7.116 7.565a6.48 6.48 0 0 1-6.497-6.497c0-3.43 2.7-6.271 6.103-6.468V9.36c0 .338.281.647.647.647h6.272c-.113 3.488-3.01 6.3-6.525 6.3" />
</svg>
