<svg xmlns="http://www.w3.org/2000/svg" xmlns:xlink="http://www.w3.org/1999/xlink" width="160" zoomAndPan="magnify" viewBox="0 0 120 36.000001" height="48" preserveAspectRatio="xMidYMid meet" version="1.0"><defs><g/><clipPath id="099cc37432"><path d="M 23.773438 5.09375 L 28.882812 5.09375 L 28.882812 10.203125 L 23.773438 10.203125 Z M 23.773438 5.09375 " clip-rule="nonzero"/></clipPath></defs><g fill="#000000" fill-opacity="1"><g transform="translate(13.267133, 33.038356)"><g><path d="M 0.453125 -4.0625 L 1.34375 -4.0625 L 1.34375 -2.46875 L 2.921875 -2.46875 L 2.921875 -4.0625 L 3.8125 -4.0625 L 3.8125 0 L 2.921875 0 L 2.921875 -1.640625 L 1.34375 -1.640625 L 1.34375 0 L 0.453125 0 Z M 0.453125 -4.0625 "/></g></g></g><g fill="#000000" fill-opacity="1"><g transform="translate(19.341491, 33.038356)"><g><path d="M 2.078125 0.078125 C 1.835938 0.078125 1.613281 0.0351562 1.40625 -0.046875 C 1.207031 -0.128906 1.035156 -0.242188 0.890625 -0.390625 C 0.742188 -0.546875 0.628906 -0.726562 0.546875 -0.9375 C 0.460938 -1.15625 0.421875 -1.390625 0.421875 -1.640625 L 0.421875 -4.0625 L 1.3125 -4.0625 L 1.3125 -1.65625 C 1.3125 -1.382812 1.378906 -1.171875 1.515625 -1.015625 C 1.660156 -0.859375 1.847656 -0.78125 2.078125 -0.78125 C 2.304688 -0.78125 2.488281 -0.859375 2.625 -1.015625 C 2.769531 -1.171875 2.84375 -1.382812 2.84375 -1.65625 L 2.84375 -4.0625 L 3.734375 -4.0625 L 3.734375 -1.640625 C 3.734375 -1.390625 3.691406 -1.15625 3.609375 -0.9375 C 3.523438 -0.726562 3.410156 -0.546875 3.265625 -0.390625 C 3.117188 -0.242188 2.941406 -0.128906 2.734375 -0.046875 C 2.535156 0.0351562 2.316406 0.078125 2.078125 0.078125 Z M 2.078125 0.078125 "/></g></g></g><g fill="#000000" fill-opacity="1"><g transform="translate(25.306842, 33.038356)"><g><path d="M 2.3125 0.078125 C 2.007812 0.078125 1.726562 0.0234375 1.46875 -0.078125 C 1.21875 -0.191406 1 -0.34375 0.8125 -0.53125 C 0.625 -0.71875 0.476562 -0.9375 0.375 -1.1875 C 0.269531 -1.445312 0.21875 -1.726562 0.21875 -2.03125 C 0.21875 -2.332031 0.269531 -2.609375 0.375 -2.859375 C 0.476562 -3.117188 0.625 -3.34375 0.8125 -3.53125 C 1 -3.726562 1.21875 -3.878906 1.46875 -3.984375 C 1.726562 -4.085938 2.007812 -4.140625 2.3125 -4.140625 C 2.601562 -4.140625 2.875 -4.085938 3.125 -3.984375 C 3.382812 -3.878906 3.609375 -3.726562 3.796875 -3.53125 C 3.992188 -3.34375 4.144531 -3.117188 4.25 -2.859375 C 4.351562 -2.609375 4.40625 -2.332031 4.40625 -2.03125 C 4.40625 -1.726562 4.351562 -1.445312 4.25 -1.1875 C 4.144531 -0.9375 3.992188 -0.71875 3.796875 -0.53125 C 3.609375 -0.34375 3.382812 -0.191406 3.125 -0.078125 C 2.875 0.0234375 2.601562 0.078125 2.3125 0.078125 Z M 2.3125 -0.78125 C 2.476562 -0.78125 2.628906 -0.8125 2.765625 -0.875 C 2.910156 -0.9375 3.035156 -1.019531 3.140625 -1.125 C 3.242188 -1.238281 3.320312 -1.375 3.375 -1.53125 C 3.4375 -1.6875 3.46875 -1.851562 3.46875 -2.03125 C 3.46875 -2.207031 3.4375 -2.375 3.375 -2.53125 C 3.320312 -2.6875 3.242188 -2.816406 3.140625 -2.921875 C 3.035156 -3.035156 2.910156 -3.125 2.765625 -3.1875 C 2.628906 -3.25 2.476562 -3.28125 2.3125 -3.28125 C 2.144531 -3.28125 1.988281 -3.25 1.84375 -3.1875 C 1.695312 -3.125 1.570312 -3.035156 1.46875 -2.921875 C 1.375 -2.816406 1.296875 -2.6875 1.234375 -2.53125 C 1.171875 -2.375 1.140625 -2.207031 1.140625 -2.03125 C 1.140625 -1.851562 1.171875 -1.6875 1.234375 -1.53125 C 1.296875 -1.375 1.375 -1.238281 1.46875 -1.125 C 1.570312 -1.019531 1.695312 -0.9375 1.84375 -0.875 C 1.988281 -0.8125 2.144531 -0.78125 2.3125 -0.78125 Z M 2.3125 -0.78125 "/></g></g></g><g fill="#000000" fill-opacity="1"><g transform="translate(31.738518, 33.038356)"><g><path d="M 1.296875 -2.421875 L 1.296875 0 L 0.453125 0 L 0.453125 -4.140625 L 0.921875 -4.140625 L 3.1875 -1.640625 L 3.1875 -4.0625 L 4.015625 -4.0625 L 4.015625 0.078125 L 3.5625 0.078125 Z M 1.296875 -2.421875 "/></g></g></g><g fill="#000000" fill-opacity="1"><g transform="translate(38.024845, 33.038356)"><g><path d="M 2.265625 0.078125 C 1.972656 0.078125 1.703125 0.0234375 1.453125 -0.078125 C 1.203125 -0.179688 0.984375 -0.328125 0.796875 -0.515625 C 0.609375 -0.703125 0.460938 -0.921875 0.359375 -1.171875 C 0.265625 -1.429688 0.21875 -1.707031 0.21875 -2 C 0.21875 -2.3125 0.269531 -2.597656 0.375 -2.859375 C 0.476562 -3.117188 0.625 -3.34375 0.8125 -3.53125 C 1.007812 -3.71875 1.234375 -3.863281 1.484375 -3.96875 C 1.742188 -4.082031 2.023438 -4.140625 2.328125 -4.140625 C 2.640625 -4.140625 2.929688 -4.078125 3.203125 -3.953125 C 3.484375 -3.835938 3.71875 -3.664062 3.90625 -3.4375 L 3.296875 -2.84375 C 3.160156 -2.976562 3.007812 -3.082031 2.84375 -3.15625 C 2.6875 -3.238281 2.519531 -3.28125 2.34375 -3.28125 C 2.164062 -3.28125 2.003906 -3.25 1.859375 -3.1875 C 1.710938 -3.125 1.585938 -3.035156 1.484375 -2.921875 C 1.378906 -2.816406 1.296875 -2.6875 1.234375 -2.53125 C 1.171875 -2.375 1.140625 -2.207031 1.140625 -2.03125 C 1.140625 -1.84375 1.171875 -1.671875 1.234375 -1.515625 C 1.296875 -1.367188 1.378906 -1.238281 1.484375 -1.125 C 1.597656 -1.019531 1.726562 -0.9375 1.875 -0.875 C 2.019531 -0.8125 2.1875 -0.78125 2.375 -0.78125 C 2.519531 -0.78125 2.660156 -0.800781 2.796875 -0.84375 C 2.929688 -0.882812 3.054688 -0.953125 3.171875 -1.046875 L 3.171875 -1.59375 L 2.390625 -1.59375 L 2.390625 -2.328125 L 4.046875 -2.328125 L 4.046875 -0.6875 C 3.835938 -0.445312 3.578125 -0.257812 3.265625 -0.125 C 2.953125 0.0078125 2.617188 0.078125 2.265625 0.078125 Z M 2.265625 0.078125 "/></g></g></g><g fill="#000000" fill-opacity="1"><g transform="translate(44.190046, 33.038356)"><g/></g></g><g fill="#000000" fill-opacity="1"><g transform="translate(47.339296, 33.038356)"><g><path d="M 1.296875 -3.234375 L 0.125 -3.234375 L 0.125 -4.0625 L 3.375 -4.0625 L 3.375 -3.234375 L 2.1875 -3.234375 L 2.1875 0 L 1.296875 0 Z M 1.296875 -3.234375 "/></g></g></g><g fill="#000000" fill-opacity="1"><g transform="translate(52.644528, 33.038356)"><g><path d="M 2.3125 0.078125 C 2.007812 0.078125 1.726562 0.0234375 1.46875 -0.078125 C 1.21875 -0.191406 1 -0.34375 0.8125 -0.53125 C 0.625 -0.71875 0.476562 -0.9375 0.375 -1.1875 C 0.269531 -1.445312 0.21875 -1.726562 0.21875 -2.03125 C 0.21875 -2.332031 0.269531 -2.609375 0.375 -2.859375 C 0.476562 -3.117188 0.625 -3.34375 0.8125 -3.53125 C 1 -3.726562 1.21875 -3.878906 1.46875 -3.984375 C 1.726562 -4.085938 2.007812 -4.140625 2.3125 -4.140625 C 2.601562 -4.140625 2.875 -4.085938 3.125 -3.984375 C 3.382812 -3.878906 3.609375 -3.726562 3.796875 -3.53125 C 3.992188 -3.34375 4.144531 -3.117188 4.25 -2.859375 C 4.351562 -2.609375 4.40625 -2.332031 4.40625 -2.03125 C 4.40625 -1.726562 4.351562 -1.445312 4.25 -1.1875 C 4.144531 -0.9375 3.992188 -0.71875 3.796875 -0.53125 C 3.609375 -0.34375 3.382812 -0.191406 3.125 -0.078125 C 2.875 0.0234375 2.601562 0.078125 2.3125 0.078125 Z M 2.3125 -0.78125 C 2.476562 -0.78125 2.628906 -0.8125 2.765625 -0.875 C 2.910156 -0.9375 3.035156 -1.019531 3.140625 -1.125 C 3.242188 -1.238281 3.320312 -1.375 3.375 -1.53125 C 3.4375 -1.6875 3.46875 -1.851562 3.46875 -2.03125 C 3.46875 -2.207031 3.4375 -2.375 3.375 -2.53125 C 3.320312 -2.6875 3.242188 -2.816406 3.140625 -2.921875 C 3.035156 -3.035156 2.910156 -3.125 2.765625 -3.1875 C 2.628906 -3.25 2.476562 -3.28125 2.3125 -3.28125 C 2.144531 -3.28125 1.988281 -3.25 1.84375 -3.1875 C 1.695312 -3.125 1.570312 -3.035156 1.46875 -2.921875 C 1.375 -2.816406 1.296875 -2.6875 1.234375 -2.53125 C 1.171875 -2.375 1.140625 -2.207031 1.140625 -2.03125 C 1.140625 -1.851562 1.171875 -1.6875 1.234375 -1.53125 C 1.296875 -1.375 1.375 -1.238281 1.46875 -1.125 C 1.570312 -1.019531 1.695312 -0.9375 1.84375 -0.875 C 1.988281 -0.8125 2.144531 -0.78125 2.3125 -0.78125 Z M 2.3125 -0.78125 "/></g></g></g><g fill="#000000" fill-opacity="1"><g transform="translate(59.076202, 33.038356)"><g><path d="M 0.453125 -4.0625 L 1.34375 -4.0625 L 1.34375 0 L 0.453125 0 Z M 0.453125 -4.0625 "/></g></g></g><g fill="#000000" fill-opacity="1"><g transform="translate(62.685718, 33.038356)"><g/></g></g><g fill="#000000" fill-opacity="1"><g transform="translate(65.83497, 33.038356)"><g><path d="M 1.296875 -2.421875 L 1.296875 0 L 0.453125 0 L 0.453125 -4.140625 L 0.921875 -4.140625 L 3.1875 -1.640625 L 3.1875 -4.0625 L 4.015625 -4.0625 L 4.015625 0.078125 L 3.5625 0.078125 Z M 1.296875 -2.421875 "/></g></g></g><g fill="#000000" fill-opacity="1"><g transform="translate(72.1213, 33.038356)"><g><path d="M 2.265625 0.078125 C 1.972656 0.078125 1.703125 0.0234375 1.453125 -0.078125 C 1.203125 -0.179688 0.984375 -0.328125 0.796875 -0.515625 C 0.609375 -0.703125 0.460938 -0.921875 0.359375 -1.171875 C 0.265625 -1.429688 0.21875 -1.707031 0.21875 -2 C 0.21875 -2.3125 0.269531 -2.597656 0.375 -2.859375 C 0.476562 -3.117188 0.625 -3.34375 0.8125 -3.53125 C 1.007812 -3.71875 1.234375 -3.863281 1.484375 -3.96875 C 1.742188 -4.082031 2.023438 -4.140625 2.328125 -4.140625 C 2.640625 -4.140625 2.929688 -4.078125 3.203125 -3.953125 C 3.484375 -3.835938 3.71875 -3.664062 3.90625 -3.4375 L 3.296875 -2.84375 C 3.160156 -2.976562 3.007812 -3.082031 2.84375 -3.15625 C 2.6875 -3.238281 2.519531 -3.28125 2.34375 -3.28125 C 2.164062 -3.28125 2.003906 -3.25 1.859375 -3.1875 C 1.710938 -3.125 1.585938 -3.035156 1.484375 -2.921875 C 1.378906 -2.816406 1.296875 -2.6875 1.234375 -2.53125 C 1.171875 -2.375 1.140625 -2.207031 1.140625 -2.03125 C 1.140625 -1.84375 1.171875 -1.671875 1.234375 -1.515625 C 1.296875 -1.367188 1.378906 -1.238281 1.484375 -1.125 C 1.597656 -1.019531 1.726562 -0.9375 1.875 -0.875 C 2.019531 -0.8125 2.1875 -0.78125 2.375 -0.78125 C 2.519531 -0.78125 2.660156 -0.800781 2.796875 -0.84375 C 2.929688 -0.882812 3.054688 -0.953125 3.171875 -1.046875 L 3.171875 -1.59375 L 2.390625 -1.59375 L 2.390625 -2.328125 L 4.046875 -2.328125 L 4.046875 -0.6875 C 3.835938 -0.445312 3.578125 -0.257812 3.265625 -0.125 C 2.953125 0.0078125 2.617188 0.078125 2.265625 0.078125 Z M 2.265625 0.078125 "/></g></g></g><g fill="#000000" fill-opacity="1"><g transform="translate(78.286504, 33.038356)"><g><path d="M 1.65625 -4.140625 L 2.21875 -4.140625 L 3.828125 0 L 2.890625 0 L 2.640625 -0.6875 L 1.25 -0.6875 L 1 0 L 0.0625 0 Z M 2.375 -1.453125 L 1.953125 -2.640625 L 1.515625 -1.453125 Z M 2.375 -1.453125 "/></g></g></g><g fill="#000000" fill-opacity="1"><g transform="translate(83.98539, 33.038356)"><g><path d="M 1.21875 -1.453125 L -0.03125 -4.0625 L 0.9375 -4.0625 L 1.671875 -2.421875 L 2.4375 -4.0625 L 3.359375 -4.0625 L 2.09375 -1.46875 L 2.09375 0 L 1.21875 0 Z M 1.21875 -1.453125 "/></g></g></g><g fill="#000000" fill-opacity="1"><g transform="translate(89.127107, 33.038356)"><g/></g></g><g fill="#000000" fill-opacity="1"><g transform="translate(92.276359, 33.038356)"><g><path d="M 0.453125 -4.140625 L 0.90625 -4.140625 L 2.578125 -1.9375 L 4.234375 -4.140625 L 4.6875 -4.140625 L 4.6875 0 L 3.8125 0 L 3.8125 -2.265625 L 2.75 -0.859375 L 2.390625 -0.859375 L 1.34375 -2.25 L 1.34375 0 L 0.453125 0 Z M 0.453125 -4.140625 "/></g></g></g><g fill="#000000" fill-opacity="1"><g transform="translate(99.234918, 33.038356)"><g><path d="M 1.65625 -4.140625 L 2.21875 -4.140625 L 3.828125 0 L 2.890625 0 L 2.640625 -0.6875 L 1.25 -0.6875 L 1 0 L 0.0625 0 Z M 2.375 -1.453125 L 1.953125 -2.640625 L 1.515625 -1.453125 Z M 2.375 -1.453125 "/></g></g></g><g fill="#000000" fill-opacity="1"><g transform="translate(104.933804, 33.038356)"><g><path d="M 0.453125 -4.0625 L 1.34375 -4.0625 L 1.34375 0 L 0.453125 0 Z M 0.453125 -4.0625 "/></g></g></g><g fill="#ff0080" fill-opacity="1"><g transform="translate(1.332089, 20.853539)"><g><path d="M 1.296875 0 L 1.296875 -18.546875 L 5.109375 -18.546875 L 5.109375 -9.890625 L 5.15625 -9.890625 C 6.144531 -10.890625 7.203125 -11.390625 8.328125 -11.390625 C 8.867188 -11.390625 9.410156 -11.316406 9.953125 -11.171875 C 10.492188 -11.023438 11.007812 -10.800781 11.5 -10.5 C 12 -10.195312 12.398438 -9.769531 12.703125 -9.21875 C 13.015625 -8.664062 13.171875 -8.019531 13.171875 -7.28125 L 13.171875 0 L 9.359375 0 L 9.359375 -6.25 C 9.359375 -6.820312 9.175781 -7.320312 8.8125 -7.75 C 8.445312 -8.1875 7.96875 -8.40625 7.375 -8.40625 C 6.800781 -8.40625 6.28125 -8.179688 5.8125 -7.734375 C 5.34375 -7.296875 5.109375 -6.800781 5.109375 -6.25 L 5.109375 0 Z M 1.296875 0 "/></g></g></g><g fill="#ff0080" fill-opacity="1"><g transform="translate(14.827204, 20.853539)"><g><path d="M 4.890625 -11.0625 L 4.890625 -5.796875 C 4.890625 -4.703125 5.054688 -3.925781 5.390625 -3.46875 C 5.722656 -3.007812 6.285156 -2.78125 7.078125 -2.78125 C 7.867188 -2.78125 8.425781 -3.007812 8.75 -3.46875 C 9.082031 -3.925781 9.25 -4.703125 9.25 -5.796875 L 9.25 -11.0625 L 13.0625 -11.0625 L 13.0625 -4.875 C 13.0625 -3.03125 12.582031 -1.703125 11.625 -0.890625 C 10.675781 -0.078125 9.160156 0.328125 7.078125 0.328125 C 4.992188 0.328125 3.472656 -0.078125 2.515625 -0.890625 C 1.554688 -1.703125 1.078125 -3.03125 1.078125 -4.875 L 1.078125 -11.0625 Z M 4.890625 -11.0625 "/></g></g></g><g fill="#ff0080" fill-opacity="1"><g transform="translate(28.214535, 20.853539)"><g><path d="M 1.296875 0 L 1.296875 -11.0625 L 5.109375 -11.0625 L 5.109375 -9.890625 L 5.15625 -9.890625 C 6.144531 -10.890625 7.203125 -11.390625 8.328125 -11.390625 C 8.867188 -11.390625 9.410156 -11.316406 9.953125 -11.171875 C 10.492188 -11.023438 11.007812 -10.800781 11.5 -10.5 C 12 -10.195312 12.398438 -9.769531 12.703125 -9.21875 C 13.015625 -8.664062 13.171875 -8.019531 13.171875 -7.28125 L 13.171875 0 L 9.359375 0 L 9.359375 -6.25 C 9.359375 -6.820312 9.175781 -7.320312 8.8125 -7.75 C 8.445312 -8.1875 7.96875 -8.40625 7.375 -8.40625 C 6.800781 -8.40625 6.28125 -8.179688 5.8125 -7.734375 C 5.34375 -7.296875 5.109375 -6.800781 5.109375 -6.25 L 5.109375 0 Z M 1.296875 0 "/></g></g></g><g fill="#ff0080" fill-opacity="1"><g transform="translate(41.70965, 20.853539)"><g><path d="M 0.796875 2.71875 L 3.921875 1.1875 C 4.492188 2.132812 5.492188 2.609375 6.921875 2.609375 C 7.578125 2.609375 8.1875 2.394531 8.75 1.96875 C 9.320312 1.550781 9.609375 0.898438 9.609375 0.015625 L 9.609375 -0.796875 C 8.941406 -0.046875 7.738281 0.328125 6 0.328125 C 4.394531 0.328125 3.078125 -0.234375 2.046875 -1.359375 C 1.015625 -2.492188 0.5 -3.878906 0.5 -5.515625 C 0.5 -7.160156 1.015625 -8.550781 2.046875 -9.6875 C 3.078125 -10.820312 4.394531 -11.390625 6 -11.390625 C 7.414062 -11.390625 8.597656 -10.945312 9.546875 -10.0625 L 9.609375 -10.0625 L 9.609375 -11.0625 L 13.4375 -11.0625 L 13.4375 0.296875 C 13.4375 2.097656 12.835938 3.488281 11.640625 4.46875 C 10.453125 5.445312 8.878906 5.9375 6.921875 5.9375 C 3.753906 5.9375 1.710938 4.863281 0.796875 2.71875 Z M 5.28125 -7.390625 C 4.789062 -6.898438 4.546875 -6.273438 4.546875 -5.515625 C 4.546875 -4.753906 4.78125 -4.132812 5.25 -3.65625 C 5.726562 -3.175781 6.359375 -2.9375 7.140625 -2.9375 C 7.890625 -2.9375 8.503906 -3.179688 8.984375 -3.671875 C 9.460938 -4.160156 9.703125 -4.773438 9.703125 -5.515625 C 9.703125 -6.273438 9.453125 -6.898438 8.953125 -7.390625 C 8.460938 -7.878906 7.859375 -8.125 7.140625 -8.125 C 6.398438 -8.125 5.78125 -7.878906 5.28125 -7.390625 Z M 5.28125 -7.390625 "/></g></g></g><g fill="#ff0080" fill-opacity="1"><g transform="translate(55.67905, 20.853539)"><g><path d="M 1.9375 -11.0625 L 1.9375 -15.1875 L 5.75 -15.1875 L 5.75 -11.0625 L 8.09375 -11.0625 L 8.09375 -8.15625 L 5.75 -8.15625 L 5.75 -4.640625 C 5.75 -3.617188 6.039062 -3.109375 6.625 -3.109375 C 6.757812 -3.109375 6.90625 -3.132812 7.0625 -3.1875 C 7.226562 -3.25 7.351562 -3.304688 7.4375 -3.359375 L 7.5625 -3.453125 L 8.515625 -0.359375 C 7.691406 0.0976562 6.757812 0.328125 5.71875 0.328125 C 5 0.328125 4.378906 0.203125 3.859375 -0.046875 C 3.335938 -0.304688 2.941406 -0.644531 2.671875 -1.0625 C 2.410156 -1.488281 2.222656 -1.9375 2.109375 -2.40625 C 1.992188 -2.875 1.9375 -3.375 1.9375 -3.90625 L 1.9375 -8.15625 L 0.34375 -8.15625 L 0.34375 -11.0625 Z M 1.9375 -11.0625 "/></g></g></g><g fill="#ff0080" fill-opacity="1"><g transform="translate(63.439718, 20.853539)"><g><path d="M 1.296875 0 L 1.296875 -18.546875 L 5.109375 -18.546875 L 5.109375 -9.890625 L 5.15625 -9.890625 C 6.144531 -10.890625 7.203125 -11.390625 8.328125 -11.390625 C 8.867188 -11.390625 9.410156 -11.316406 9.953125 -11.171875 C 10.492188 -11.023438 11.007812 -10.800781 11.5 -10.5 C 12 -10.195312 12.398438 -9.769531 12.703125 -9.21875 C 13.015625 -8.664062 13.171875 -8.019531 13.171875 -7.28125 L 13.171875 0 L 9.359375 0 L 9.359375 -6.25 C 9.359375 -6.820312 9.175781 -7.320312 8.8125 -7.75 C 8.445312 -8.1875 7.96875 -8.40625 7.375 -8.40625 C 6.800781 -8.40625 6.28125 -8.179688 5.8125 -7.734375 C 5.34375 -7.296875 5.109375 -6.800781 5.109375 -6.25 L 5.109375 0 Z M 1.296875 0 "/></g></g></g><g fill="#ff0080" fill-opacity="1"><g transform="translate(76.934836, 20.853539)"><g><path d="M 2.046875 -1.359375 C 1.015625 -2.492188 0.5 -3.878906 0.5 -5.515625 C 0.5 -7.160156 1.015625 -8.550781 2.046875 -9.6875 C 3.078125 -10.820312 4.394531 -11.390625 6 -11.390625 C 7.457031 -11.390625 8.660156 -10.925781 9.609375 -10 L 9.609375 -11.0625 L 13.4375 -11.0625 L 13.4375 0 L 9.65625 0 L 9.65625 -1.25 L 9.609375 -1.25 C 8.660156 -0.195312 7.457031 0.328125 6 0.328125 C 4.394531 0.328125 3.078125 -0.234375 2.046875 -1.359375 Z M 5.28125 -7.390625 C 4.789062 -6.898438 4.546875 -6.273438 4.546875 -5.515625 C 4.546875 -4.753906 4.78125 -4.132812 5.25 -3.65625 C 5.726562 -3.175781 6.359375 -2.9375 7.140625 -2.9375 C 7.890625 -2.9375 8.503906 -3.179688 8.984375 -3.671875 C 9.460938 -4.160156 9.703125 -4.773438 9.703125 -5.515625 C 9.703125 -6.273438 9.453125 -6.898438 8.953125 -7.390625 C 8.460938 -7.878906 7.859375 -8.125 7.140625 -8.125 C 6.398438 -8.125 5.78125 -7.878906 5.28125 -7.390625 Z M 5.28125 -7.390625 "/></g></g></g><g fill="#ff0080" fill-opacity="1"><g transform="translate(90.904233, 20.853539)"><g><path d="M 1.296875 0 L 1.296875 -11.0625 L 5.109375 -11.0625 L 5.109375 -9.890625 L 5.15625 -9.890625 C 6.144531 -10.890625 7.203125 -11.390625 8.328125 -11.390625 C 8.867188 -11.390625 9.410156 -11.316406 9.953125 -11.171875 C 10.492188 -11.023438 11.007812 -10.800781 11.5 -10.5 C 12 -10.195312 12.398438 -9.769531 12.703125 -9.21875 C 13.015625 -8.664062 13.171875 -8.019531 13.171875 -7.28125 L 13.171875 0 L 9.359375 0 L 9.359375 -6.25 C 9.359375 -6.820312 9.175781 -7.320312 8.8125 -7.75 C 8.445312 -8.1875 7.96875 -8.40625 7.375 -8.40625 C 6.800781 -8.40625 6.28125 -8.179688 5.8125 -7.734375 C 5.34375 -7.296875 5.109375 -6.800781 5.109375 -6.25 L 5.109375 0 Z M 1.296875 0 "/></g></g></g><g fill="#ff0080" fill-opacity="1"><g transform="translate(104.399346, 20.853539)"><g><path d="M 1.296875 0 L 1.296875 -18.546875 L 5.109375 -18.546875 L 5.109375 -9.890625 L 5.15625 -9.890625 C 6.144531 -10.890625 7.203125 -11.390625 8.328125 -11.390625 C 8.867188 -11.390625 9.410156 -11.316406 9.953125 -11.171875 C 10.492188 -11.023438 11.007812 -10.800781 11.5 -10.5 C 12 -10.195312 12.398438 -9.769531 12.703125 -9.21875 C 13.015625 -8.664062 13.171875 -8.019531 13.171875 -7.28125 L 13.171875 0 L 9.359375 0 L 9.359375 -6.25 C 9.359375 -6.820312 9.175781 -7.320312 8.8125 -7.75 C 8.445312 -8.1875 7.96875 -8.40625 7.375 -8.40625 C 6.800781 -8.40625 6.28125 -8.179688 5.8125 -7.734375 C 5.34375 -7.296875 5.109375 -6.800781 5.109375 -6.25 L 5.109375 0 Z M 1.296875 0 "/></g></g></g><g clip-path="url(#099cc37432)"><path fill="#ff0080" d="M 28.683594 7.574219 L 27.960938 7.574219 C 26.71875 7.308594 26.445312 7.03125 26.175781 5.789062 L 26.175781 5.09375 L 26.085938 5.09375 L 26.085938 5.796875 C 25.816406 7.03125 25.542969 7.308594 24.304688 7.574219 L 23.777344 7.574219 L 23.777344 7.667969 L 24.304688 7.667969 C 25.542969 7.933594 25.816406 8.210938 26.085938 9.445312 L 26.085938 10.132812 L 26.175781 10.132812 L 26.175781 9.453125 C 26.445312 8.210938 26.71875 7.933594 27.960938 7.667969 L 28.683594 7.667969 Z M 28.683594 7.574219 " fill-opacity="1" fill-rule="nonzero"/></g></svg>