<svg
  width="500"
  height="480"
  viewBox="0 0 500 480"
  fill="none"
  xmlns="http://www.w3.org/2000/svg"
>
  <rect x="330" y="310" width="170" height="170" rx="2" fill="dark" />
  <rect
    x="362"
    y="365.831"
    width="80.765"
    height="80.765"
    rx="2"
    transform="rotate(-13.913 362 365.831)"
    fill="#4A6CF7"
  />
  <path
    d="M412.572 402.039a5.19 5.19 0 0 1-6.288-3.792 5.2 5.2 0 0 1 1.434-5.008l13.973-13.482-5.303 18.395a5.2 5.2 0 0 1-3.816 3.887m-5.41-21.839c3.041-.753 6.088-.616 8.899.149l-3.024 2.907a13.9 13.9 0 0 0-5.042.304 13.84 13.84 0 0 0-10.111 16.768 13.73 13.73 0 0 0 6.283 8.518l.016-.004a1.72 1.72 0 0 1 .587 2.368 1.76 1.76 0 0 1-2.381.608 17.25 17.25 0 0 1-7.864-10.658 17.304 17.304 0 0 1 12.637-20.96m20.961 12.638a17.26 17.26 0 0 1-1.98 13.096 1.74 1.74 0 0 1-2.373.57 1.723 1.723 0 0 1-.587-2.369 13.75 13.75 0 0 0 1.58-10.465 14 14 0 0 0-2.114-4.647l1.159-4.031c2.018 2.174 3.557 4.788 4.315 7.846"
    fill="#fff"
  />
  <rect width="300" height="480" rx="2"/>
  <rect
    x="35"
    y="35"
    width="230"
    height="134"
    rx="2"
    fill="#DAE2F0"
    fill-opacity=".66"
  />
  <rect
    opacity=".53"
    x="35"
    y="194"
    width="230"
    height="27"
    rx="2"
    fill="#DAE2F0"
  />
  <path fill="url(#a)" d="M35 246h137v199H35z" />
  <rect
    opacity=".57"
    x="187"
    y="246"
    width="78"
    height="64"
    rx="2"
    fill="#DAE2F0"
  />
  <rect
    opacity=".6"
    x="187"
    y="322"
    width="78"
    height="55"
    rx="2"
    fill="#DAE2F0"
  />
  <rect
    opacity=".5"
    x="187"
    y="389"
    width="78"
    height="56"
    rx="2"
    fill="#DAE2F0"
  />
  <path
    d="M377.795 371.295c-19.313-21.523-46.221-78.844.653-135.939"
    stroke="url(#b)"
    stroke-linecap="round"
    stroke-linejoin="round"
    stroke-dasharray="2 2"
  />
  <path
    d="m375.753 233.513 5.13-.513v4.617"
    stroke="url(#c)"
    stroke-linecap="round"
    stroke-linejoin="round"
    stroke-dasharray="2 2"
  />
  <rect x="330" width="170" height="280" rx="2"/>
  <rect x="384" y="213" width="69" height="19.528" rx="9.764" fill="#36A269" />
  <path
    d="M399.37 219.51v3.667c0 .771-.532 1.326-1.398 1.326-.863 0-1.398-.555-1.398-1.326v-3.667h-.857v3.736c0 1.193.893 2.039 2.255 2.039s2.258-.846 2.258-2.039v-3.736zm2.04 7.278h.829v-2.26h.05c.15.272.455.746 1.232.746 1.032 0 1.781-.827 1.781-2.205 0-1.382-.761-2.194-1.79-2.194-.79 0-1.076.482-1.223.746h-.069v-.691h-.81zm.812-3.728c0-.89.389-1.481 1.113-1.481.752 0 1.129.635 1.129 1.481 0 .855-.389 1.507-1.129 1.507-.713 0-1.113-.611-1.113-1.507m5.604 2.214c.776 0 1.082-.474 1.231-.746h.07v.663h.81v-5.681h-.83v2.111h-.05c-.149-.264-.432-.746-1.226-.746-1.029 0-1.786.812-1.786 2.194 0 1.378.746 2.205 1.781 2.205m.183-.707c-.741 0-1.126-.652-1.126-1.507 0-.846.377-1.481 1.126-1.481.724 0 1.112.591 1.112 1.481 0 .896-.396 1.507-1.112 1.507m4.351.718c.705 0 1.102-.358 1.26-.677h.033v.583h.81v-2.83c0-1.24-.976-1.486-1.653-1.486-.771 0-1.481.31-1.759 1.087l.78.177c.122-.302.432-.593.99-.593.535 0 .81.28.81.763v.019c0 .302-.311.297-1.076.386-.808.094-1.634.305-1.634 1.273 0 .838.629 1.298 1.439 1.298m.181-.666c-.469 0-.807-.211-.807-.621 0-.444.393-.602.873-.666.269-.036.907-.108 1.027-.227v.549c0 .505-.403.965-1.093.965m5.016-3.689h-.874v-1.021h-.83v1.021h-.624v.666h.624v2.516c-.002.774.589 1.148 1.243 1.134.264-.003.441-.052.538-.089l-.149-.685c-.056.011-.159.036-.292.036-.269 0-.51-.088-.51-.568v-2.344h.874zm2.708 4.347c.929 0 1.586-.458 1.775-1.151l-.785-.142c-.15.402-.51.608-.982.608-.71 0-1.187-.461-1.209-1.282h3.029v-.294c0-1.54-.921-2.141-1.887-2.141-1.187 0-1.969.904-1.969 2.213 0 1.323.771 2.189 2.028 2.189m-1.199-2.588c.034-.605.472-1.129 1.146-1.129.644 0 1.065.477 1.068 1.129zm10.666-3.179h-.849v4.172h-.053l-2.89-4.172h-.793v5.681h.857v-4.167h.053l2.887 4.167h.788zm2.978 5.767c1.202 0 1.987-.88 1.987-2.197 0-1.326-.785-2.205-1.987-2.205s-1.986.879-1.986 2.205c0 1.317.785 2.197 1.986 2.197m.003-.697c-.785 0-1.151-.685-1.151-1.503 0-.816.366-1.509 1.151-1.509.78 0 1.146.693 1.146 1.509 0 .818-.366 1.503-1.146 1.503m3.703.611h.844l.865-3.077h.064l.865 3.077h.846l1.251-4.261h-.857l-.829 3.115h-.042l-.832-3.115h-.857l-.838 3.129h-.041l-.835-3.129h-.857z"
    fill="#fff"
  />
  
  <path
    d="M429.313 209c16.06-17.898 38.436-65.563-.543-113.04"
    stroke="url(#d)"
    stroke-linecap="round"
    stroke-linejoin="round"
    stroke-dasharray="2 2"
  />
  <path
    d="M431.011 94.427 426.746 94v3.84"
    stroke="#9CAECA"
    stroke-linecap="round"
    stroke-linejoin="round"
    stroke-dasharray="2 2"
  />
  <path
    d="M425.919 209.551c3.431-6.457 6.547-22.163-8.431-33.323"
    stroke="url(#e)"
    stroke-width=".7"
    stroke-linecap="round"
    stroke-linejoin="round"
    stroke-dasharray="2 2"
  />
  <rect
    x="348.1"
    y="72.1"
    width="75.8"
    height="18.8"
    rx="1.9"
    fill="#DAE2F0"
    stroke="#DAE2F0"
    stroke-width=".2"
  />
  <path
    d="M371 83.538h.658v-1.902h1.854v-.565h-1.854v-1.33h2.048v-.566H371zm5.333-1.357c.002.556-.412.82-.77.82-.394 0-.667-.285-.667-.73v-2.005h-.637v2.081c0 .812.446 1.234 1.074 1.234.492 0 .827-.26.978-.61h.034v.567h.627v-3.272h-.639zm2.132-3.006h-.637v4.363h.637zm1.494 0h-.637v4.363h.637zm1.26 5.591c.526 0 .858-.275 1.048-.79l1.353-3.704-.688-.006-.829 2.54h-.034l-.829-2.54h-.682l1.198 3.315-.079.217c-.162.435-.39.471-.739.375l-.154.522c.077.034.243.07.435.07m4.64-1.227h.659v-1.65h.937l.887 1.65h.75l-.968-1.766c.535-.198.801-.643.801-1.23 0-.803-.498-1.367-1.51-1.367h-1.556zm.659-2.218v-1.58h.826c.65 0 .919.308.919.803 0 .492-.269.777-.91.777zm4.527 2.284c.714 0 1.219-.351 1.364-.884l-.603-.108c-.115.309-.392.466-.755.466-.545 0-.912-.354-.929-.984h2.327v-.226c0-1.183-.707-1.645-1.449-1.645-.912 0-1.513.695-1.513 1.7 0 1.017.593 1.681 1.558 1.681m-.921-1.987c.026-.465.363-.868.88-.868.495 0 .819.367.821.868zm5.484-.552c-.132-.51-.53-.842-1.238-.842-.739 0-1.263.39-1.263.97 0 .464.281.773.895.91l.554.12c.315.071.462.212.462.416 0 .254-.27.452-.688.452-.381 0-.627-.164-.703-.486l-.616.094c.107.58.588.905 1.323.905.791 0 1.338-.42 1.338-1.012 0-.462-.294-.748-.895-.886l-.52-.12c-.36-.085-.515-.206-.513-.428-.002-.251.271-.43.633-.43.396 0 .579.22.654.439zm.765 3.701h.637v-1.737h.038c.115.209.35.573.946.573.793 0 1.368-.635 1.368-1.694 0-1.06-.584-1.685-1.374-1.685-.607 0-.827.37-.94.573h-.053v-.53h-.622zm.624-2.864c0-.684.298-1.138.854-1.138.578 0 .868.488.868 1.138 0 .656-.299 1.157-.868 1.157-.547 0-.854-.469-.854-1.157m4.457 1.702c.923 0 1.526-.675 1.526-1.687 0-1.019-.603-1.694-1.526-1.694-.922 0-1.525.675-1.525 1.694 0 1.012.603 1.687 1.525 1.687m.002-.534c-.602 0-.884-.527-.884-1.155 0-.627.282-1.16.884-1.16.599 0 .88.533.88 1.16 0 .628-.281 1.155-.88 1.155m2.872-1.475c0-.522.32-.82.763-.82.432 0 .695.283.695.758v2.005h.637v-2.081c0-.81-.446-1.234-1.115-1.234-.492 0-.814.228-.965.575h-.04v-.532h-.612v3.272h.637zm5.401-.53c-.132-.51-.53-.842-1.238-.842-.739 0-1.263.39-1.263.97 0 .464.281.773.895.91l.554.12c.315.071.462.212.462.416 0 .254-.27.452-.688.452-.381 0-.626-.164-.703-.486l-.616.094c.107.58.588.905 1.323.905.791 0 1.338-.42 1.338-1.012 0-.462-.294-.748-.895-.886l-.519-.12c-.361-.085-.516-.206-.514-.428-.002-.251.271-.43.633-.43.396 0 .579.22.654.439zm.765 2.473h.637v-3.272h-.637zm.322-3.777c.219 0 .402-.17.402-.38 0-.208-.183-.381-.402-.381a.394.394 0 0 0-.403.381c0 .21.181.38.403.38m3.972.505h-.684l-.827 2.518h-.034l-.829-2.518h-.684l1.189 3.272h.682zm1.892 3.338c.713 0 1.218-.351 1.363-.884l-.603-.108c-.115.309-.392.466-.754.466-.545 0-.912-.354-.929-.984h2.327v-.226c0-1.183-.708-1.645-1.449-1.645-.912 0-1.513.695-1.513 1.7 0 1.017.592 1.681 1.558 1.681m-.921-1.987c.026-.465.362-.868.88-.868.495 0 .818.367.821.868z"
    fill="#000"
  />
  
  <circle cx="359.5" cy="81.5" r="6.5" fill="#4A6CF7" />
  <path
    d="M357.167 79.75h4.666v2.917h-4.666zm4.666 3.5a.585.585 0 0 0 .584-.583V79.75a.584.584 0 0 0-.584-.583h-4.666a.58.58 0 0 0-.584.583v2.917a.585.585 0 0 0 .584.583H356v.584h7v-.584z"
    fill="#000"
  />
  
  
  <rect
    x="373"
    y="148.4"
    width="34"
    height="34"
    rx="1"
    transform="rotate(-12.571 373 148.4)"
    fill="#4A6CF7"
  />
  <circle
    cx="393.293"
    cy="161.293"
    r="10"
    transform="rotate(-12.571 393.293 161.293)"
    fill="#fff"
  />
  <g clip-path="url(#f)">
    <path
      d="m398.281 159.94-2.025-1.287c-.15-.096-.241-.032-.202.142l.379 1.701-1.894.422a1.3 1.3 0 0 0-1.445-.918l-.419-1.881 1.7-.379c.175-.039.194-.148.043-.244l-2.025-1.286a.32.32 0 0 0-.445.099l-1.287 2.025c-.096.151-.032.241.142.202l1.701-.379.419 1.88a1.3 1.3 0 0 0-.918 1.445l-1.894.423-.379-1.7c-.039-.174-.148-.193-.243-.043l-1.287 2.026a.32.32 0 0 0 .099.445l2.025 1.286c.151.096.241.033.202-.142l-.379-1.701 1.891-.422a1.3 1.3 0 0 0 1.446.918l.422 1.891-1.7.379c-.174.039-.193.148-.043.244l2.026 1.286c.15.096.349.052.445-.099l1.287-2.025c.095-.151.032-.241-.143-.202l-1.698.379-.421-1.89a1.3 1.3 0 0 0 .918-1.445l1.892-.422.379 1.701c.039.174.147.193.243.043l1.287-2.026a.32.32 0 0 0-.099-.446"
      fill="#4A6CF7"
    />
  </g>
  <rect
    x="398.1"
    y="32.1"
    width="80.8"
    height="19.8"
    rx="1.9"
    fill="#DAE2F0"
    stroke="#DAE2F0"
    stroke-width=".2"
  />
  <rect x="462" y="35" width="14" height="14" rx="1" fill="#4A6CF7" />
  <path
    d="M468.998 38a4 4 0 1 0 .003 7.999 4 4 0 0 0-.003-7.999m.002 7.524a3.524 3.524 0 1 1 0-7.049 3.524 3.524 0 0 1 0 7.049m0-6.596v6.141a3.074 3.074 0 0 0 3.071-3.07A3.076 3.076 0 0 0 469 38.928m-63.301 4.436.4-1.155h1.705l.398 1.155h.699L407.331 39h-.761L405 43.364zm.592-1.71.644-1.861h.034l.643 1.862zM410.117 39h-.637v4.364h.637zm1.567 4.364h.648l.664-2.363h.049l.665 2.363h.65l.961-3.273h-.658l-.637 2.393h-.032l-.64-2.393h-.658l-.643 2.403h-.032l-.642-2.403h-.658zm5.194.072c.541 0 .846-.275.967-.52h.026v.448h.622V41.19c0-.952-.75-1.142-1.27-1.142-.592 0-1.138.239-1.351.835l.599.137c.094-.232.332-.456.761-.456.411 0 .622.215.622.586v.015c0 .232-.239.228-.827.296-.62.072-1.255.234-1.255.978 0 .643.484.997 1.106.997m.139-.511c-.361 0-.621-.162-.621-.478 0-.34.303-.462.672-.51.206-.029.696-.084.788-.176v.422c0 .388-.309.742-.839.742m2.61 1.665c.526 0 .859-.274 1.048-.79l1.353-3.703-.688-.006-.829 2.54h-.034l-.829-2.54h-.681l1.197 3.315-.079.218c-.162.434-.39.47-.739.375l-.154.522c.077.034.243.07.435.07m5.454-3.701c-.132-.51-.53-.842-1.238-.842-.739 0-1.263.39-1.263.97 0 .464.281.773.895.91l.554.121c.315.07.462.21.462.416 0 .253-.271.451-.688.451-.382 0-.627-.164-.703-.486l-.616.094c.106.58.588.906 1.323.906.79 0 1.338-.42 1.338-1.012 0-.463-.294-.748-.895-.887l-.52-.12c-.36-.084-.515-.206-.513-.427-.002-.252.27-.43.633-.43.396 0 .579.219.654.438zm4.426 1.116c.002.556-.412.82-.77.82-.394 0-.667-.285-.667-.73V40.09h-.637v2.082c0 .811.446 1.233 1.074 1.233.492 0 .827-.26.978-.61h.034v.568h.627V40.09h-.639zm1.495 2.584h.637v-1.736h.038c.115.21.35.574.946.574.793 0 1.368-.635 1.368-1.694 0-1.061-.584-1.686-1.374-1.686-.607 0-.827.371-.94.573h-.053v-.53h-.622zm.624-2.863c0-.684.298-1.137.854-1.137.578 0 .868.487.868 1.137 0 .657-.299 1.157-.868 1.157-.547 0-.854-.468-.854-1.157m6.194-1.637h-.671v-.783h-.637v.784h-.479v.511h.479v1.933c-.002.594.452.882.955.871.202-.002.339-.04.413-.068l-.115-.526c-.043.008-.121.028-.224.028-.206 0-.392-.069-.392-.437v-1.8h.671zm2.049 3.34c.922 0 1.525-.676 1.525-1.688 0-1.018-.603-1.694-1.525-1.694-.923 0-1.526.676-1.526 1.694 0 1.012.603 1.688 1.526 1.688m.002-.535c-.603 0-.884-.526-.884-1.155 0-.626.281-1.159.884-1.159.598 0 .88.533.88 1.16 0 .628-.282 1.154-.88 1.154m5.047.533c.597 0 .831-.365.946-.574h.054v.51h.622V39h-.637v1.621h-.039c-.115-.202-.332-.573-.941-.573-.791 0-1.373.625-1.373 1.686 0 1.059.574 1.694 1.368 1.694m.141-.544c-.569 0-.865-.5-.865-1.157 0-.65.29-1.137.865-1.137.556 0 .854.453.854 1.137 0 .689-.304 1.157-.854 1.157m3.342.552c.542 0 .846-.275.968-.52h.025v.448h.623V41.19c0-.952-.75-1.142-1.27-1.142-.593 0-1.138.239-1.351.835l.598.137c.094-.232.333-.456.761-.456.411 0 .622.215.622.586v.015c0 .232-.238.228-.826.296-.62.072-1.255.234-1.255.978 0 .643.483.997 1.105.997m.139-.511c-.36 0-.62-.162-.62-.478 0-.34.302-.462.671-.51.207-.029.697-.084.788-.176v.422c0 .388-.309.742-.839.742m3.853-2.835h-.671v-.783h-.637v.784h-.48v.511h.48v1.933c-.003.594.451.882.954.871.202-.002.339-.04.413-.068l-.115-.526c-.042.008-.121.028-.223.028-.207 0-.392-.069-.392-.437v-1.8h.671zm2.08 3.34c.714 0 1.219-.352 1.363-.885l-.603-.108c-.115.309-.392.466-.754.466-.545 0-.912-.353-.929-.984h2.327v-.226c0-1.182-.707-1.645-1.449-1.645-.912 0-1.513.695-1.513 1.7 0 1.017.593 1.682 1.558 1.682m-.921-1.988c.026-.465.363-.867.88-.867.495 0 .819.366.821.867z"
    fill="#000000"
  />
 

  <defs>
    <linearGradient
      id="a"
      x1="156.747"
      y1="216.683"
      x2="-149.033"
      y2="282.186"
      gradientUnits="userSpaceOnUse"
    >
      <stop stop-color="#F0F2F9" />
      <stop offset="1" stop-color="#fff" stop-opacity="0" />
    </linearGradient>
    <linearGradient
      id="b"
      x1="374.3"
      y1="234.975"
      x2="361.897"
      y2="369.833"
      gradientUnits="userSpaceOnUse"
    >
      <stop stop-color="#000000" stop-opacity=".48" />
      <stop offset="1" stop-color="#000000" stop-opacity="0" />
    </linearGradient>
    <linearGradient
      id="c"
      x1="378.318"
      y1="233"
      x2="378.318"
      y2="237.617"
      gradientUnits="userSpaceOnUse"
    >
      <stop stop-color="#000000" stop-opacity=".55" />
      <stop offset="1" stop-color="#000000" stop-opacity=".62" />
    </linearGradient>
    <linearGradient
      id="d"
      x1="432.22"
      y1="95.642"
      x2="442.533"
      y2="207.784"
      gradientUnits="userSpaceOnUse"
    >
      <stop stop-color="#5F7597" stop-opacity=".48" />
      <stop offset="1" stop-color="#000000" stop-opacity="0" />
    </linearGradient>
    <linearGradient
      id="e"
      x1="418.483"
      y1="175.882"
      x2="429.732"
      y2="208.225"
      gradientUnits="userSpaceOnUse"
    >
      <stop stop-color="#000000" stop-opacity=".48" />
      <stop offset="1" stop-color="#000000" stop-opacity="0" />
    </linearGradient>
    <linearGradient
      id="g"
      x1="396"
      y1="42"
      x2="359.25"
      y2="42"
      gradientUnits="userSpaceOnUse"
    >
      <stop stop-color="#000000" stop-opacity=".28" />
      <stop offset="1" stop-color="#000000" stop-opacity="0" />
    </linearGradient>
    <clipPath id="f">
      <path
        fill="#000000"
        d="m386.12 156.74 11.713-2.613 2.612 11.713-11.713 2.612z"
      />
    </clipPath>
  </defs>
</svg>
