<svg
  width="15"
  height="15"
  viewBox="0 0 15 15"
  xmlns="http://www.w3.org/2000/svg"
>
  <path d="M3.895 8.675h-.788c-.144 0-.24.096-.24.24v.764c0 .143.096.239.24.239h.788c.144 0 .24-.096.24-.239v-.765c0-.143-.096-.239-.24-.239m2.534 0H5.64c-.143 0-.239.096-.239.24v.764c0 .143.096.239.24.239h.788c.143 0 .239-.096.239-.239v-.765a.24.24 0 0 0-.239-.239m2.509 0H8.15c-.144 0-.24.096-.24.24v.764c0 .143.096.239.24.239h.788c.144 0 .24-.096.24-.239v-.765c0-.143-.096-.239-.24-.239m2.534 0h-.79c-.143 0-.238.096-.238.24v.764c0 .143.095.239.239.239h.789c.143 0 .239-.096.239-.239v-.765a.24.24 0 0 0-.24-.239M3.895 11.16h-.788c-.144 0-.24.096-.24.24v.764c0 .144.096.24.24.24h.788c.144 0 .24-.096.24-.24V11.4c0-.144-.096-.24-.24-.24m2.534 0H5.64c-.143 0-.239.096-.239.24v.764c0 .144.096.24.24.24h.788c.143 0 .239-.096.239-.24V11.4a.24.24 0 0 0-.239-.24m2.509 0H8.15c-.144 0-.24.096-.24.24v.764c0 .144.096.24.24.24h.788c.144 0 .24-.096.24-.24V11.4c0-.144-.096-.24-.24-.24m2.534 0h-.79c-.143 0-.238.096-.238.24v.764c0 .144.095.24.239.24h.789c.143 0 .239-.096.239-.24V11.4a.24.24 0 0 0-.24-.24" />
  <path d="M13.264 3.37H7.648v-.79c.55-.143.98-.67.98-1.267C8.627.597 8.03 0 7.288 0 6.548 0 5.95.597 5.95 1.314c0 .598.406 1.1.98 1.267v.789H1.314C.597 3.37 0 3.967 0 4.684v8.58c0 .717.597 1.314 1.314 1.314h11.95c.717 0 1.314-.597 1.314-1.314v-8.58c0-.717-.597-1.314-1.314-1.314M6.668 1.314c0-.334.263-.597.621-.597.335 0 .621.263.621.597 0 .335-.262.598-.62.598-.336 0-.622-.287-.622-.598M1.314 4.087h11.95c.334 0 .597.263.597.597v1.769H.717V4.684c0-.334.263-.597.597-.597m11.95 9.774H1.314a.59.59 0 0 1-.597-.597V7.17h13.144v6.094a.59.59 0 0 1-.597.597" />
</svg>
