<svg
  width="18"
  height="13"
  viewBox="0 0 18 13"
  xmlns="http://www.w3.org/2000/svg"
>
  <path d="M15.638 0H1.688C.759 0 0 .76 0 1.688v9c0 .618.31 1.153.844 1.462.253.14.562.225.844.225.28 0 .562-.084.843-.225l2.475-1.434a.75.75 0 0 1 .338-.085h10.265c.929 0 1.688-.76 1.688-1.687V1.687C17.325.76 16.566 0 15.637 0m.703 8.944c0 .393-.31.703-.704.703H5.372c-.281 0-.59.084-.844.225l-2.475 1.434a.78.78 0 0 1-.703 0c-.225-.112-.338-.337-.338-.59V1.688c0-.394.31-.704.704-.704h13.95c.393 0 .703.31.703.704v7.256z" />
  <path d="M12.234 3.375H4.697a.504.504 0 0 0-.507.506c0 .281.225.507.507.507h7.565a.504.504 0 0 0 .506-.507c0-.281-.253-.506-.534-.506m-1.181 3.178H4.697a.504.504 0 0 0-.507.506c0 .282.225.507.507.507h6.384a.504.504 0 0 0 .506-.507c0-.28-.253-.506-.534-.506" />
</svg>
