<svg
  width="20"
  height="18"
  viewBox="0 0 20 18"
  fill="none"
  xmlns="http://www.w3.org/2000/svg"
>
  <path
    d="m19.406 16.813-5.468-4.438A7.55 7.55 0 0 0 15.5 7.781a7.47 7.47 0 0 0-2.219-5.343C10.344-.5 5.562-.5 2.594 2.438A7.5 7.5 0 0 0 .406 7.75a7.47 7.47 0 0 0 2.219 5.344 7.55 7.55 0 0 0 5.344 2.219 7.56 7.56 0 0 0 5.25-2.126l5.531 4.47a.47.47 0 0 0 .344.124.62.62 0 0 0 .437-.187c.157-.25.125-.594-.125-.782m-16.031-4.47C2.156 11.126 1.5 9.5 1.5 7.75s.656-3.344 1.906-4.562A6.43 6.43 0 0 1 7.97 1.312c1.656 0 3.312.626 4.562 1.876a6.43 6.43 0 0 1 1.906 4.562c0 1.719-.718 3.375-1.937 4.594-2.5 2.5-6.594 2.5-9.125 0"
    fill="#fff"
  />
</svg>
