<svg
  width="40"
  height="45"
  viewBox="0 0 40 45"
  xmlns="http://www.w3.org/2000/svg"
>
  <path
    opacity=".5"
    fill="#FF69B4"
    d="M31.579 37.895a5.265 5.265 0 0 1-5.263-5.263c0-.716.137-1.401.398-2.03a.53.53 0 0 0-.106-.583L25 28.41a.474.474 0 0 0-.751.088 8.36 8.36 0 0 0-1.091 4.134 8.42 8.42 0 0 0 8.421 8.42v1.952a.5.5 0 0 0 .853.353l3.53-3.53a.5.5 0 0 0 0-.707l-3.53-3.53a.5.5 0 0 0-.853.354zm0-13.684V22.26a.5.5 0 0 0-.854-.354l-3.53 3.53a.5.5 0 0 0 0 .707l3.53 3.53a.5.5 0 0 0 .854-.354v-1.95a5.265 5.265 0 0 1 5.263 5.263c0 .715-.137 1.4-.398 2.03a.53.53 0 0 0 .106.582l1.608 1.609a.474.474 0 0 0 .751-.088A8.36 8.36 0 0 0 40 32.632a8.42 8.42 0 0 0-8.421-8.421"
  />
  <path
    fill="#FF69B4"
    d="M18.947 32.632c0 2.839.863 5.465 2.347 7.648.496.73.011 1.825-.871 1.825H4.21A4.196 4.196 0 0 1 0 37.895V4.21A4.21 4.21 0 0 1 4.21 0h25.264a4.21 4.21 0 0 1 4.21 4.21v13.744c0 .55-.504.993-1.052.993-7.558 0-13.685 6.127-13.685 13.685"
  />
</svg>
