<svg
  width="40"
  height="42"
  viewBox="0 0 40 42"
  xmlns="http://www.w3.org/2000/svg"
>
  <path
    opacity=".5"
    fill="#FF69B4"
    d="M31.894 25.33c2.23 0 4.256.81 5.674 2.432l1.578-1.578a.5.5 0 0 1 .854.353v6.399a.5.5 0 0 1-.5.5h-6.4a.5.5 0 0 1-.353-.853l2.794-2.794c-1.013-.811-2.23-1.419-3.648-1.419-2.837 0-5.066 2.229-5.066 5.066s2.23 5.066 5.066 5.066c1.46 0 2.757-.658 3.74-1.678a1.1 1.1 0 0 1 .782-.348h2.238c.353 0 .594.357.434.673-1.345 2.662-4.01 4.393-7.194 4.393-4.458 0-8.105-3.648-8.105-8.106s3.647-8.106 8.105-8.106"
  />
  <path
    fill="#FF69B4"
    d="M18.723 33.436c0-2.079.528-3.981 1.257-5.707a.267.267 0 0 0-.244-.372c-3.85 0-7.093-3.243-7.093-7.093s3.243-7.092 7.093-7.092 7.092 3.242 7.092 7.092c0 .247.562.741.797.667a13.8 13.8 0 0 1 4.27-.667c.88 0 1.76.153 2.641.326a.333.333 0 0 0 .398-.326c0-.394 0-.874-.055-1.328-.052-.424.08-.872.421-1.131l3.687-2.81c.405-.405.405-.81.202-1.215l-4.003-7.007a2 2 0 0 1-.084-.179c-.188-.455-.517-.508-.988-.514a1 1 0 0 0-.372.07l-4.346 1.74a1.07 1.07 0 0 1-1.007-.134c-.773-.546-1.637-1.001-2.514-1.443a1 1 0 0 1-.541-.749l-.661-4.458c-.046-.313-.012-.716-.274-.894C24.224.093 23.983 0 23.79 0h-8.106c-.38 0-.94.358-1.007.737-.008.049-.01.098-.017.146l-.71 4.791c-.055.373-.318.678-.662.832-.843.378-1.614.917-2.468 1.387a.95.95 0 0 1-.827.037L5.735 6.156a1 1 0 0 0-.384-.076c-.5.007-.86.069-1.219.607L.08 13.78c-.202.405 0 .81.406 1.216l3.861 2.942a.88.88 0 0 1 .362.794c-.057.511-.17 1.078-.17 1.532 0 .4 0 .89.058 1.35.052.414-.07.85-.394 1.113L.485 25.735c-.406.406-.406.811-.203 1.216l4.053 7.093c.18.36.521.4 1.023.405a1 1 0 0 0 .372-.071l4.346-1.739a1.07 1.07 0 0 1 1.007.133c.773.546 1.636 1.002 2.513 1.444.292.147.494.425.542.748l.724 4.884c.007.048.009.097.015.146.045.38.438.737 1.009.737h3.244c.79 0 1.277-.879.933-1.589-.863-1.783-1.34-3.685-1.34-5.706"
  />
</svg>
