<svg
  viewBox="0 0 512 512"
  width="20"
  height="20"
  xmlns="http://www.w3.org/2000/svg"
>
  <path d="M116.8 212.8c0-9.5-7.6-17.4-17.1-17.4h-.2C47.9 195.4 6 237.3 6 288.9s41.9 93.5 93.5 93.5h.2c9.5 0 17.1-7.9 17.1-17.4zm278.4 0c0-9.5 7.6-17.4 17.1-17.4h.2c51.6 0 93.5 41.9 93.5 93.5s-41.9 93.5-93.5 93.5h-.2c-9.5 0-17.1-7.9-17.1-17.4z" />
  <path d="M460.7 271.1c-9.6 0-17.4-8.1-17.4-18.2 0-107.7-83.9-181.3-187.1-181.3S69.1 145.3 69.1 252.9c0 10-7.8 18.2-17.4 18.2s-17.4-8.1-17.4-18.2c0-127.7 99.6-231.6 221.9-231.6s221.9 103.9 221.9 231.6c0 10.1-7.8 18.2-17.4 18.2M300.5 465.9c-5.8 0-11.9-.3-18.2-.8l2-23.2c112.2 9.8 137-83.3 138-87.3l22.6 5.6c-.3 1.2-7.5 29.8-31.2 56.9-19.9 23-55.3 48.8-113.2 48.8" />
  <circle cx="280.2" cy="454.3" r="36.4" />
</svg>
