<svg
  width="22"
  height="22"
  viewBox="0 0 22 22"
  fill="none"
  xmlns="http://www.w3.org/2000/svg"
>
  <path d="M11 9.625c-2.578 0-4.64-2.028-4.64-4.503S8.421.619 11 .619s4.64 2.028 4.64 4.503S13.579 9.625 11 9.625m0-7.46c-1.719 0-3.094 1.341-3.094 2.957S9.281 8.078 11 8.078s3.094-1.34 3.094-2.956S12.719 2.166 11 2.166m6.772 19.25H4.228c-.687 0-1.237-.55-1.237-1.238v-3.094c0-3.368 2.75-6.118 6.118-6.118h3.816c3.369 0 6.119 2.75 6.119 6.118v3.094c-.035.653-.585 1.238-1.272 1.238M4.537 19.869h12.96v-2.785c0-2.509-2.063-4.571-4.572-4.571h-3.85c-2.51 0-4.572 2.062-4.572 4.571v2.785z" />
</svg>
